<svg version="1.1" xmlns="http://www.w3.org/2000/svg" xmlns:xlink="http://www.w3.org/1999/xlink" width="52.33px" height="40.63px" viewBox="0,0,256,198.75"><g fill="#262e4f" fill-rule="nonzero" stroke="none" stroke-width="1" stroke-linecap="butt" stroke-linejoin="miter" stroke-miterlimit="10" stroke-dasharray="" stroke-dashoffset="0" font-family="none" font-weight="none" font-size="none" text-anchor="none" style="mix-blend-mode: normal"><g transform="translate(0,-0.00662) scale(4.89203,4.89203)"><g id="_x31_"><g id="D_-_25_x2C__chat_x2C__message_x2C__popup_x2C__man_x2C__conversation"><g><path d="M31.96,40.63h-30.85c-0.6,0 -1.11,-0.5 -1.11,-1.11v-11.8c0,-0.5 0.4,-1.01 0.91,-1.11l9.68,-2.22c0.5,-0.1 1.01,0.1 1.21,0.5l2.52,4.44l1.81,-1.11c0.4,-0.2 0.91,-0.2 1.21,0l1.71,1.11l3.63,-4.54c0.3,-0.4 0.81,-0.5 1.21,-0.4l8.57,2.82c0.5,0.2 0.81,0.61 0.81,1.11v11.09c-0.2,0.71 -0.71,1.21 -1.31,1.21zM2.22,38.31h28.63v-9.07l-6.96,-2.32l-3.73,4.74c-0.4,0.5 -1.01,0.6 -1.51,0.2l-1.92,-1.31l-2.32,1.31c-0.3,0.2 -0.6,0.2 -0.91,0.1c-0.3,-0.1 -0.5,-0.3 -0.71,-0.5l-2.62,-4.64l-7.96,1.82v9.68z"></path><path d="M25.61,40.63h-18.15c-0.6,0 -1.11,-0.5 -1.11,-1.11v-6.35c0,-0.6 0.5,-1.11 1.11,-1.11c0.61,0 1.11,0.5 1.11,1.11v5.24h15.83v-5.24c0,-0.6 0.5,-1.11 1.11,-1.11c0.61,0 1.11,0.5 1.11,1.11v6.35c0.1,0.6 -0.4,1.11 -1.01,1.11z"></path><path d="M16.74,23.79c-2.52,0 -4.84,-1.61 -6.45,-4.64c-1.21,-2.32 -2.02,-5.24 -2.02,-7.56c0,-0.61 0,-1.21 0.1,-1.82c0.1,-0.6 0.71,-1.01 1.31,-0.91c0.61,0.1 1.01,0.71 0.91,1.31c-0.1,0.4 -0.1,0.81 -0.1,1.41c0,1.61 0.5,4.23 1.71,6.45c0.91,1.61 2.32,3.53 4.44,3.53c1.51,0 2.72,-1.01 3.53,-1.92c1.81,-2.22 2.92,-5.95 2.52,-8.47c-0.1,-0.61 0.3,-1.21 0.91,-1.31c0.6,-0.1 1.21,0.3 1.31,0.91c0.5,3.23 -0.71,7.66 -3.02,10.38c-1.41,1.61 -3.23,2.62 -5.14,2.62z"></path><path d="M23.89,12c-0.2,0 -0.4,0 -0.5,-0.1l-2.32,-1.21c-0.4,0.3 -1.01,0.6 -1.92,0.6h-8.37c-2.32,0 -4.13,-1.61 -4.13,-3.83v-3.23c0,-0.6 0.5,-1.11 1.11,-1.11h11.09c1.41,0 2.02,1.11 2.42,1.71l0.1,0.1v0.1v0l3.13,1.92c0.3,0.2 0.5,0.6 0.5,1.01v2.92c0,0.4 -0.2,0.81 -0.5,1.01c-0.2,0 -0.4,0.1 -0.6,0.1zM8.97,5.44v2.02c0,1.01 0.91,1.51 1.81,1.51h8.37c0.5,0 0.6,-0.2 0.6,-0.3c0.3,-0.5 1.01,-0.71 1.51,-0.4l1.41,0.71v-0.4l-2.82,-1.71c-0.2,-0.1 -0.4,-0.4 -0.5,-0.6v-0.1l-0.1,-0.1c-0.1,-0.2 -0.3,-0.5 -0.4,-0.6h-9.88z"></path><path d="M13.81,32.06h-0.3c-0.3,-0.1 -0.5,-0.3 -0.71,-0.5l-3.13,-5.44c-0.2,-0.4 -0.2,-1.01 0.2,-1.41l2.02,-2.02c0.2,-0.2 0.6,-0.4 0.91,-0.3c0.3,0 0.6,0.2 0.81,0.5l3.83,5.75c0.2,0.3 0.2,0.6 0.2,0.91c-0.1,0.3 -0.2,0.6 -0.5,0.71l-2.72,1.61c-0.1,0.1 -0.4,0.2 -0.6,0.2zM12.2,25.71l2.12,3.63l0.81,-0.5l-2.42,-3.63l-0.5,0.5z"></path><path d="M19.16,32.06c-0.2,0 -0.4,-0.1 -0.6,-0.2l-2.52,-1.71c-0.3,-0.2 -0.4,-0.5 -0.5,-0.81c0,-0.3 0,-0.6 0.2,-0.91l4.74,-5.75c0.2,-0.2 0.5,-0.4 0.81,-0.4c0.31,0 0.6,0.1 0.91,0.3l2.12,2.12c0.4,0.4 0.4,1.11 0.1,1.51l-4.23,5.34c-0.3,0.4 -0.61,0.5 -1.01,0.5zM18.25,28.94l0.6,0.4l3.02,-3.73l-0.5,-0.5z"></path><path d="M16.64,20.06c-1.31,0 -2.32,-0.5 -2.92,-1.01l1.41,-1.71v0c0.1,0.1 1.41,1.01 3.02,0c0.5,-0.4 1.21,-0.2 1.61,0.3c0.4,0.5 0.2,1.21 -0.3,1.61c-1.01,0.5 -1.92,0.81 -2.82,0.81z"></path><path d="M31.76,20.37c-0.2,0 -0.4,0 -0.5,-0.1c-0.4,-0.2 -0.61,-0.6 -0.61,-1.01v-4.23h-2.92c-0.61,0 -1.11,-0.5 -1.11,-1.11v-12.81c0,-0.61 0.5,-1.11 1.11,-1.11h23.49c0.6,0 1.11,0.5 1.11,1.11v12.8c0,0.61 -0.5,1.11 -1.11,1.11h-10.89l-7.86,5.14c-0.2,0.1 -0.5,0.2 -0.71,0.2zM28.83,12.7h2.92c0.6,0 1.11,0.5 1.11,1.11v3.23l6.35,-4.13c0.2,-0.1 0.4,-0.2 0.61,-0.2h10.08v-10.49h-21.17v10.49h0.1z"></path><path d="M47.99,6.45h-16.03c-0.61,0 -1.11,-0.5 -1.11,-1.11c0,-0.61 0.5,-1.11 1.11,-1.11h16.03c0.61,0 1.11,0.5 1.11,1.11c0,0.61 -0.5,1.11 -1.11,1.11z"></path><path d="M40.53,10.79h-8.57c-0.61,0 -1.11,-0.5 -1.11,-1.11c0,-0.61 0.5,-1.11 1.11,-1.11h8.57c0.6,0 1.11,0.5 1.11,1.11c0,0.5 -0.5,1.11 -1.11,1.11z"></path></g></g></g></g></g></svg>