<svg version="1.1" xmlns="http://www.w3.org/2000/svg" xmlns:xlink="http://www.w3.org/1999/xlink" width="52.83px" height="52.33px" viewBox="0,0,256,253.5625"><g fill="#262e4f" fill-rule="nonzero" stroke="none" stroke-width="1" stroke-linecap="butt" stroke-linejoin="miter" stroke-miterlimit="10" stroke-dasharray="" stroke-dashoffset="0" font-family="none" font-weight="none" font-size="none" text-anchor="none" style="mix-blend-mode: normal"><g transform="translate(0,-0.00732) scale(4.84573,4.84573)"><g id="_x31_"><g id="D_-_24_x2C__connection_x2C__meeting_x2C__office_x2C__communication"><g><path d="M22.89,52.33h-21.78c-0.6,0 -1.11,-0.5 -1.11,-1.11v-7.76c0,-0.5 0.3,-0.91 0.81,-1.11l6.76,-2.12c0.3,-0.1 0.71,-0.1 0.91,0.1l3.53,2.32l4.03,-2.32c0.3,-0.2 0.6,-0.2 0.91,-0.1l6.25,2.12c0.5,0.2 0.81,0.61 0.81,1.11v7.76c0.1,0.6 -0.4,1.11 -1.11,1.11zM2.22,50.01h19.56v-5.85l-4.94,-1.61l-4.23,2.42c-0.4,0.2 -0.81,0.2 -1.21,0l-3.73,-2.42l-5.44,1.71v5.75z"></path><path d="M5.85,52.33c-0.3,0 -0.6,-0.1 -0.81,-0.3c-0.2,-0.2 -0.3,-0.5 -0.3,-0.81v-4.23c0,-0.6 0.5,-1.11 1.11,-1.11c0.61,0 1.11,0.5 1.11,1.11v3.13h10.49v-3.13c0,-0.6 0.5,-1.11 1.11,-1.11v0c0.61,0 1.11,0.5 1.11,1.11v4.23c0,0.3 -0.1,0.61 -0.3,0.81c-0.2,0.2 -0.5,0.3 -0.81,0.3z"></path><path d="M11.8,39.52c-3.53,0 -6.45,-2.92 -6.45,-6.45c0,-3.53 2.92,-6.45 6.45,-6.45c3.53,0 6.45,2.92 6.45,6.45c0,3.53 -2.92,6.45 -6.45,6.45zM11.8,28.83c-2.32,0 -4.23,1.92 -4.23,4.23c0,2.31 1.92,4.23 4.23,4.23c2.31,0 4.23,-1.92 4.23,-4.23c0,-2.31 -1.92,-4.23 -4.23,-4.23z"></path><path d="M51.72,52.33h-21.78c-0.6,0 -1.11,-0.5 -1.11,-1.11v-7.76c0,-0.5 0.3,-0.91 0.81,-1.11l6.75,-2.12c0.3,-0.1 0.71,-0.1 0.91,0.1l3.53,2.32l4.03,-2.32c0.3,-0.2 0.6,-0.2 0.91,-0.1l6.25,2.12c0.5,0.2 0.81,0.61 0.81,1.11v7.76c0,0.6 -0.5,1.11 -1.11,1.11zM31.05,50.01h19.56v-5.85l-4.94,-1.61l-4.23,2.42c-0.4,0.2 -0.81,0.2 -1.21,0l-3.73,-2.42l-5.44,1.71v5.75v0z"></path><path d="M34.68,52.33c-0.3,0 -0.6,-0.1 -0.81,-0.3c-0.2,-0.2 -0.3,-0.5 -0.3,-0.81v-4.23c0,-0.6 0.5,-1.11 1.11,-1.11c0.61,0 1.11,0.5 1.11,1.11v3.13h10.49v-3.13c0,-0.6 0.5,-1.11 1.11,-1.11v0c0.61,0 1.11,0.5 1.11,1.11v4.23c0,0.3 -0.1,0.61 -0.3,0.81c-0.2,0.2 -0.5,0.3 -0.81,0.3h-12.7z"></path><path d="M41.64,39.52c-3.53,0 -6.45,-2.92 -6.45,-6.45c0,-3.53 2.92,-6.45 6.45,-6.45c3.53,0 6.45,2.92 6.45,6.45c0,3.53 -2.92,6.45 -6.45,6.45zM41.64,28.83c-2.32,0 -4.23,1.92 -4.23,4.23c0,2.31 1.92,4.23 4.23,4.23c2.31,0 4.23,-1.92 4.23,-4.23c0,-2.31 -1.92,-4.23 -4.23,-4.23z"></path><path d="M37.4,25.61h-21.37c-0.6,0 -1.11,-0.5 -1.11,-1.11v-7.76c0,-0.5 0.3,-0.91 0.81,-1.11l6.55,-2.12c0.3,-0.1 0.71,-0.1 1.01,0.1l3.43,2.32l3.93,-2.32c0.3,-0.2 0.6,-0.2 0.91,-0.1l6.05,2.12c0.5,0.2 0.81,0.6 0.81,1.11v7.76c0.1,0.61 -0.4,1.11 -1.01,1.11zM17.24,23.39h19.06v-5.85l-4.84,-1.61l-4.13,2.42c-0.4,0.2 -0.81,0.2 -1.21,0l-3.63,-2.42l-5.24,1.61v5.85v0z"></path><path d="M20.37,25.61c-0.3,0 -0.6,-0.1 -0.81,-0.3c-0.2,-0.2 -0.3,-0.5 -0.3,-0.81v-4.23c0,-0.6 0.5,-1.11 1.11,-1.11c0.61,0 1.11,0.5 1.11,1.11v3.13h10.49v-3.13c0,-0.6 0.5,-1.11 1.11,-1.11v0c0.6,0 1.11,0.5 1.11,1.11v4.23c0,0.3 -0.1,0.61 -0.3,0.81c-0.2,0.2 -0.4,0.3 -0.71,0.3h-12.8z"></path><path d="M26.72,12.91c-3.53,0 -6.45,-2.92 -6.45,-6.45c0,-3.53 2.92,-6.46 6.45,-6.46c3.53,0 6.45,2.92 6.45,6.45c0,3.53 -2.92,6.45 -6.45,6.45zM26.72,2.22c-2.32,0 -4.23,1.92 -4.23,4.23c0,2.31 1.92,4.23 4.23,4.23c2.31,0 4.23,-1.92 4.23,-4.23c0,-2.31 -1.92,-4.23 -4.23,-4.23z"></path><path d="M45.87,22.48c-0.2,0 -0.4,0 -0.5,-0.1c-0.4,-0.2 -0.6,-0.6 -0.6,-1.01v-11.7h-8.47c-0.6,0 -1.11,-0.5 -1.11,-1.11c0,-0.61 0.5,-1.11 1.11,-1.11h9.58c0.6,0 1.11,0.5 1.11,1.11v10.69l1.41,-0.91c0.5,-0.3 1.21,-0.2 1.61,0.3c0.4,0.5 0.2,1.21 -0.3,1.61l-3.23,2.12c-0.1,0 -0.4,0.1 -0.6,0.1z"></path><path d="M45.87,22.48c-0.2,0 -0.4,-0.1 -0.6,-0.2l-3.23,-2.12c-0.5,-0.3 -0.71,-1.01 -0.3,-1.61c0.3,-0.5 1.01,-0.71 1.61,-0.3l3.23,2.12c0.5,0.3 0.71,1.01 0.3,1.61c-0.3,0.3 -0.61,0.5 -1.01,0.5z"></path><path d="M6.45,22.48c-0.2,0 -0.4,-0.1 -0.6,-0.2l-3.23,-2.12c-0.5,-0.3 -0.71,-1.01 -0.3,-1.61c0.3,-0.5 1.01,-0.71 1.61,-0.3l1.41,0.91v-10.59c0,-0.61 0.5,-1.11 1.11,-1.11h9.58c0.6,0 1.11,0.5 1.11,1.11c0,0.61 -0.5,1.11 -1.11,1.11h-8.47v11.7c0,0.4 -0.2,0.81 -0.6,1.01c-0.1,0 -0.3,0.1 -0.5,0.1z"></path><path d="M6.45,22.48c-0.4,0 -0.71,-0.2 -0.91,-0.5c-0.3,-0.5 -0.2,-1.21 0.3,-1.61l3.23,-2.12c0.5,-0.3 1.21,-0.2 1.61,0.3c0.3,0.5 0.2,1.21 -0.3,1.61l-3.23,2.12c-0.3,0.1 -0.5,0.2 -0.71,0.2z"></path><path d="M29.94,52.33h-7.46c-0.6,0 -1.11,-0.5 -1.11,-1.11c0,-0.61 0.5,-1.11 1.11,-1.11h7.46c0.6,0 1.11,0.5 1.11,1.11c0,0.61 -0.5,1.11 -1.11,1.11z"></path><path d="M33.07,39.52h-12.7c-0.6,0 -1.11,-0.5 -1.11,-1.11v-10.69c0,-0.6 0.5,-1.11 1.11,-1.11h12.8c0.6,0 1.11,0.5 1.11,1.11v10.69c0,0.6 -0.5,1.11 -1.21,1.11zM21.48,37.2h10.49v-8.37h-10.49z"></path><rect x="22.48" y="31.96" width="2.12" height="2.12"></rect><rect x="25.61" y="31.96" width="2.12" height="2.12"></rect><rect x="28.83" y="31.96" width="2.12" height="2.12"></rect></g></g></g></g></g></svg>