<?xml version="1.0" encoding="UTF-8"?>
<svg id="Layer_2" xmlns="http://www.w3.org/2000/svg" viewBox="0 0 52.33 40.63">
  <g id="_x31_">
    <g id="D_-_25_x2C__chat_x2C__message_x2C__popup_x2C__man_x2C__conversation">
      <g>
        <path d="M31.96,40.63H1.11c-.6,0-1.11-.5-1.11-1.11v-11.8c0-.5.4-1.01.91-1.11l9.68-2.22c.5-.1,1.01.1,1.21.5l2.52,4.44,1.81-1.11c.4-.2.91-.2,1.21,0l1.71,1.11,3.63-4.54c.3-.4.81-.5,1.21-.4l8.57,2.82c.5.2.81.61.81,1.11v11.09c-.2.71-.71,1.21-1.31,1.21ZM2.22,38.31h28.63v-9.07l-6.96-2.32-3.73,4.74c-.4.5-1.01.6-1.51.2l-1.92-1.31-2.32,1.31c-.3.2-.6.2-.91.1-.3-.1-.5-.3-.71-.5l-2.62-4.64-7.96,1.82v9.68Z"/>
        <path d="M25.61,40.63H7.46c-.6,0-1.11-.5-1.11-1.11v-6.35c0-.6.5-1.11,1.11-1.11s1.11.5,1.11,1.11v5.24h15.83v-5.24c0-.6.5-1.11,1.11-1.11s1.11.5,1.11,1.11v6.35c.1.6-.4,1.11-1.01,1.11Z"/>
        <path d="M16.74,23.79c-2.52,0-4.84-1.61-6.45-4.64-1.21-2.32-2.02-5.24-2.02-7.56,0-.61,0-1.21.1-1.82.1-.6.71-1.01,1.31-.91.61.1,1.01.71.91,1.31-.1.4-.1.81-.1,1.41,0,1.61.5,4.23,1.71,6.45.91,1.61,2.32,3.53,4.44,3.53,1.51,0,2.72-1.01,3.53-1.92,1.81-2.22,2.92-5.95,2.52-8.47-.1-.61.3-1.21.91-1.31.6-.1,1.21.3,1.31.91.5,3.23-.71,7.66-3.02,10.38-1.41,1.61-3.23,2.62-5.14,2.62Z"/>
        <path d="M23.89,12c-.2,0-.4,0-.5-.1l-2.32-1.21c-.4.3-1.01.6-1.92.6h-8.37c-2.32,0-4.13-1.61-4.13-3.83v-3.23c0-.6.5-1.11,1.11-1.11h11.09c1.41,0,2.02,1.11,2.42,1.71l.1.1v.1h0l3.13,1.92c.3.2.5.6.5,1.01v2.92c0,.4-.2.81-.5,1.01-.2,0-.4.1-.6.1ZM8.97,5.44v2.02c0,1.01.91,1.51,1.81,1.51h8.37c.5,0,.6-.2.6-.3.3-.5,1.01-.71,1.51-.4l1.41.71v-.4l-2.82-1.71c-.2-.1-.4-.4-.5-.6v-.1l-.1-.1c-.1-.2-.3-.5-.4-.6h-9.88Z"/>
        <path d="M13.81,32.06h-.3c-.3-.1-.5-.3-.71-.5l-3.13-5.44c-.2-.4-.2-1.01.2-1.41l2.02-2.02c.2-.2.6-.4.91-.3.3,0,.6.2.81.5l3.83,5.75c.2.3.2.6.2.91-.1.3-.2.6-.5.71l-2.72,1.61c-.1.1-.4.2-.6.2ZM12.2,25.71l2.12,3.63.81-.5-2.42-3.63-.5.5Z"/>
        <path d="M19.16,32.06c-.2,0-.4-.1-.6-.2l-2.52-1.71c-.3-.2-.4-.5-.5-.81,0-.3,0-.6.2-.91l4.74-5.75c.2-.2.5-.4.81-.4s.6.1.91.3l2.12,2.12c.4.4.4,1.11.1,1.51l-4.23,5.34c-.3.4-.61.5-1.01.5ZM18.25,28.94l.6.4,3.02-3.73-.5-.5-3.12,3.83Z"/>
        <path d="M16.64,20.06c-1.31,0-2.32-.5-2.92-1.01l1.41-1.71h0c.1.1,1.41,1.01,3.02,0,.5-.4,1.21-.2,1.61.3.4.5.2,1.21-.3,1.61-1.01.5-1.92.81-2.82.81Z"/>
        <path d="M31.76,20.37c-.2,0-.4,0-.5-.1-.4-.2-.61-.6-.61-1.01v-4.23h-2.92c-.61,0-1.11-.5-1.11-1.11V1.11c0-.61.5-1.11,1.11-1.11h23.49c.6,0,1.11.5,1.11,1.11v12.8c0,.61-.5,1.11-1.11,1.11h-10.89l-7.86,5.14c-.2.1-.5.2-.71.2ZM28.83,12.7h2.92c.6,0,1.11.5,1.11,1.11v3.23l6.35-4.13c.2-.1.4-.2.61-.2h10.08V2.22h-21.17v10.49h.1Z"/>
        <path d="M47.99,6.45h-16.03c-.61,0-1.11-.5-1.11-1.11s.5-1.11,1.11-1.11h16.03c.61,0,1.11.5,1.11,1.11s-.5,1.11-1.11,1.11Z"/>
        <path d="M40.53,10.79h-8.57c-.61,0-1.11-.5-1.11-1.11s.5-1.11,1.11-1.11h8.57c.6,0,1.11.5,1.11,1.11,0,.5-.5,1.11-1.11,1.11Z"/>
      </g>
    </g>
  </g>
</svg>