<?xml version="1.0" encoding="UTF-8"?>
<svg id="Layer_2" xmlns="http://www.w3.org/2000/svg" viewBox="0 0 52.43 38.51">
  <g id="_x31_">
    <g id="D_-_17_x2C__Team_x2C__user_x2C__manager_x2C__squard">
      <g>
        <path d="M41.54,38.51H10.69c-.6,0-1.11-.5-1.11-1.11v-11.8c0-.5.4-1.01.91-1.11l9.68-2.22c.5-.1,1.01.1,1.21.5l2.52,4.44,1.81-1.11c.4-.2.91-.2,1.21,0l1.71,1.11,3.63-4.54c.3-.4.81-.5,1.21-.4l8.57,2.82c.5.2.81.61.81,1.11v11.09c-.1.71-.6,1.21-1.31,1.21ZM11.8,36.2h28.63v-9.07l-6.96-2.32-3.83,4.74c-.4.5-1.01.61-1.51.2l-1.92-1.31-2.22,1.41c-.3.2-.61.2-.91.1-.3-.1-.5-.3-.71-.5l-2.62-4.74-7.96,1.81v9.68h0Z"/>
        <path d="M35.19,38.51h-18.15c-.6,0-1.11-.5-1.11-1.11v-6.35c0-.61.5-1.11,1.11-1.11s1.11.5,1.11,1.11v5.24h15.83v-5.24c0-.61.5-1.11,1.11-1.11s1.11.5,1.11,1.11v6.35c.1.61-.4,1.11-1.01,1.11Z"/>
        <path d="M26.31,20.57c-2.52,0-4.84-1.61-6.45-4.64-1.21-2.32-2.02-5.24-2.02-7.56,0-.61,0-1.21.1-1.81.1-.61.71-1.01,1.31-.91.61.1,1.01.71.91,1.31-.1.4-.1.81-.1,1.41,0,1.61.5,4.23,1.71,6.45.91,1.61,2.32,3.53,4.44,3.53,1.51,0,2.72-1.01,3.53-1.92,1.81-2.22,2.92-5.95,2.52-8.47-.1-.61.3-1.21.91-1.31.6-.1,1.21.3,1.31.91.5,3.23-.71,7.66-3.02,10.38-1.41,1.71-3.23,2.62-5.14,2.62Z"/>
        <path d="M33.57,8.87c-.2,0-.4,0-.5-.1l-2.42-1.21c-.4.3-1.01.6-1.92.6h-8.37c-2.32,0-4.13-1.61-4.13-3.83V1.11c0-.6.5-1.11,1.11-1.11h11.09c1.41,0,2.02,1.11,2.42,1.71l.1.1v.1h0l3.12,1.92c.3.2.5.61.5,1.01v2.82c0,.4-.2.81-.5,1.01-.1.1-.3.2-.5.2ZM18.55,2.32v2.02c0,1.01.91,1.51,1.81,1.51h8.37c.5,0,.61-.2.61-.3.3-.5,1.01-.71,1.51-.4l1.41.71v-.4l-2.82-1.71c-.2-.1-.4-.4-.5-.61v-.1l-.1-.1c-.1-.2-.3-.5-.4-.61h-9.88Z"/>
        <path d="M23.49,29.94h-.3c-.3-.1-.5-.3-.71-.5l-3.12-5.44c-.2-.4-.2-1.01.2-1.41l2.02-2.02c.2-.2.61-.4.91-.3.3,0,.61.2.81.5l3.83,5.75c.2.3.2.6.2.91-.1.3-.2.6-.5.71l-2.82,1.71c-.1.1-.3.1-.5.1ZM21.78,23.59l2.12,3.63.71-.4-2.42-3.63-.4.4Z"/>
        <path d="M28.73,29.94c-.2,0-.4-.1-.6-.2l-2.52-1.61c-.3-.2-.4-.5-.5-.81,0-.3,0-.61.2-.91l4.74-5.75c.2-.2.5-.4.81-.4s.61.1.91.3l2.12,2.12c.4.4.4,1.11.1,1.51l-4.34,5.34c-.2.3-.5.4-.91.4ZM27.93,26.92l.61.4,3.02-3.73-.5-.5-3.13,3.83Z"/>
        <path d="M26.62,16.84c-1.31,0-2.32-.5-2.82-1.01l1.51-1.71h0c.1.1,1.31,1.01,2.92-.1.5-.4,1.21-.2,1.61.3.4.5.2,1.21-.3,1.61-1.11.71-2.02.91-2.92.91Z"/>
        <path d="M17.04,21.48H1.11c-.6,0-1.11-.5-1.11-1.11v-5.95c0-.5.3-.91.81-1.11l5.34-1.51c.3-.1.71,0,1.01.2l2.02,1.51,2.02-1.51c.3-.2.71-.3,1.01-.2l5.34,1.51c.5.1.81.61.81,1.11v5.95c-.2.61-.71,1.11-1.31,1.11ZM2.22,19.16h13.71v-3.93l-3.93-1.11-2.22,1.61c-.4.3-1.01.3-1.41,0l-2.22-1.61-3.93,1.11v3.93Z"/>
        <path d="M13.81,21.48H4.24c-.3,0-.61-.1-.81-.3-.2-.2-.3-.5-.3-.81v-3.23c0-.61.5-1.11,1.11-1.11h0c.6,0,1.11.5,1.11,1.11v2.02h7.36v-2.12c0-.61.5-1.11,1.11-1.11h0c.6,0,1.11.5,1.11,1.11v3.23c0,.3-.1.6-.3.81-.2.3-.5.4-.81.4Z"/>
        <path d="M9.17,11.9c-2.72,0-5.04-2.22-5.04-5.04S6.35,1.82,9.17,1.82s5.04,2.22,5.04,5.04-2.22,5.04-5.04,5.04ZM9.17,4.13c-1.51,0-2.72,1.21-2.72,2.72s1.21,2.72,2.72,2.72,2.72-1.21,2.72-2.72-1.21-2.72-2.72-2.72Z"/>
        <path d="M51.12,21.48h-15.93c-.61,0-1.11-.5-1.11-1.11v-5.95c0-.5.3-.91.81-1.11l5.34-1.51c.3-.1.71,0,1.01.2l2.02,1.41,2.02-1.41c.3-.2.6-.3,1.01-.2l5.34,1.51c.5.1.81.61.81,1.11v5.95c-.1.61-.6,1.11-1.31,1.11ZM36.3,19.16h13.71v-3.93l-3.93-1.11-2.22,1.61c-.4.3-.91.3-1.31,0l-2.22-1.61-3.93,1.11-.1,3.93h0Z"/>
        <path d="M47.99,21.48h-9.58c-.3,0-.6-.1-.81-.3-.2-.2-.3-.5-.3-.81v-3.23c0-.61.5-1.11,1.11-1.11h0c.61,0,1.11.5,1.11,1.11v2.02h7.26v-2.12c0-.61.5-1.11,1.11-1.11h0c.61,0,1.11.5,1.11,1.11v3.23c0,.3-.1.6-.3.81-.2.2-.4.4-.71.4Z"/>
        <path d="M43.35,11.9c-2.72,0-5.04-2.22-5.04-5.04s2.22-5.04,5.04-5.04,5.04,2.22,5.04,5.04c-.1,2.72-2.32,5.04-5.04,5.04ZM43.35,4.13c-1.51,0-2.72,1.21-2.72,2.72s1.21,2.72,2.72,2.72,2.72-1.21,2.72-2.72-1.21-2.72-2.72-2.72Z"/>
      </g>
    </g>
  </g>
</svg>