<?xml version="1.0" encoding="UTF-8"?>
<svg id="Layer_2" xmlns="http://www.w3.org/2000/svg" viewBox="0 0 52.83 52.33">
  <g id="_x31_">
    <g id="D_-_24_x2C__connection_x2C__meeting_x2C__office_x2C__communication">
      <g>
        <path d="M22.89,52.33H1.11c-.6,0-1.11-.5-1.11-1.11v-7.76c0-.5.3-.91.81-1.11l6.76-2.12c.3-.1.71-.1.91.1l3.53,2.32,4.03-2.32c.3-.2.6-.2.91-.1l6.25,2.12c.5.2.81.61.81,1.11v7.76c.1.6-.4,1.11-1.11,1.11ZM2.22,50.01h19.56v-5.85l-4.94-1.61-4.23,2.42c-.4.2-.81.2-1.21,0l-3.73-2.42-5.44,1.71v5.75Z"/>
        <path d="M5.85,52.33c-.3,0-.6-.1-.81-.3-.2-.2-.3-.5-.3-.81v-4.23c0-.6.5-1.11,1.11-1.11s1.11.5,1.11,1.11v3.13h10.49v-3.13c0-.6.5-1.11,1.11-1.11h0c.61,0,1.11.5,1.11,1.11v4.23c0,.3-.1.61-.3.81-.2.2-.5.3-.81.3H5.85Z"/>
        <path d="M11.8,39.52c-3.53,0-6.45-2.92-6.45-6.45s2.92-6.45,6.45-6.45,6.45,2.92,6.45,6.45-2.92,6.45-6.45,6.45ZM11.8,28.83c-2.32,0-4.23,1.92-4.23,4.23s1.92,4.23,4.23,4.23,4.23-1.92,4.23-4.23-1.92-4.23-4.23-4.23Z"/>
        <path d="M51.72,52.33h-21.78c-.6,0-1.11-.5-1.11-1.11v-7.76c0-.5.3-.91.81-1.11l6.75-2.12c.3-.1.71-.1.91.1l3.53,2.32,4.03-2.32c.3-.2.6-.2.91-.1l6.25,2.12c.5.2.81.61.81,1.11v7.76c0,.6-.5,1.11-1.11,1.11ZM31.05,50.01h19.56v-5.85l-4.94-1.61-4.23,2.42c-.4.2-.81.2-1.21,0l-3.73-2.42-5.44,1.71v5.75h0Z"/>
        <path d="M34.68,52.33c-.3,0-.6-.1-.81-.3-.2-.2-.3-.5-.3-.81v-4.23c0-.6.5-1.11,1.11-1.11s1.11.5,1.11,1.11v3.13h10.49v-3.13c0-.6.5-1.11,1.11-1.11h0c.61,0,1.11.5,1.11,1.11v4.23c0,.3-.1.61-.3.81-.2.2-.5.3-.81.3h-12.7Z"/>
        <path d="M41.64,39.52c-3.53,0-6.45-2.92-6.45-6.45s2.92-6.45,6.45-6.45,6.45,2.92,6.45,6.45-2.92,6.45-6.45,6.45ZM41.64,28.83c-2.32,0-4.23,1.92-4.23,4.23s1.92,4.23,4.23,4.23,4.23-1.92,4.23-4.23-1.92-4.23-4.23-4.23Z"/>
        <path d="M37.4,25.61h-21.37c-.6,0-1.11-.5-1.11-1.11v-7.76c0-.5.3-.91.81-1.11l6.55-2.12c.3-.1.71-.1,1.01.1l3.43,2.32,3.93-2.32c.3-.2.6-.2.91-.1l6.05,2.12c.5.2.81.6.81,1.11v7.76c.1.61-.4,1.11-1.01,1.11ZM17.24,23.39h19.06v-5.85l-4.84-1.61-4.13,2.42c-.4.2-.81.2-1.21,0l-3.63-2.42-5.24,1.61v5.85h0Z"/>
        <path d="M20.37,25.61c-.3,0-.6-.1-.81-.3-.2-.2-.3-.5-.3-.81v-4.23c0-.6.5-1.11,1.11-1.11s1.11.5,1.11,1.11v3.13h10.49v-3.13c0-.6.5-1.11,1.11-1.11h0c.6,0,1.11.5,1.11,1.11v4.23c0,.3-.1.61-.3.81-.2.2-.4.3-.71.3h-12.8Z"/>
        <path d="M26.72,12.91c-3.53,0-6.45-2.92-6.45-6.45S23.19,0,26.72,0s6.45,2.92,6.45,6.45-2.92,6.45-6.45,6.45ZM26.72,2.22c-2.32,0-4.23,1.92-4.23,4.23s1.92,4.23,4.23,4.23,4.23-1.92,4.23-4.23-1.92-4.23-4.23-4.23Z"/>
        <path d="M45.87,22.48c-.2,0-.4,0-.5-.1-.4-.2-.6-.6-.6-1.01v-11.7h-8.47c-.6,0-1.11-.5-1.11-1.11s.5-1.11,1.11-1.11h9.58c.6,0,1.11.5,1.11,1.11v10.69l1.41-.91c.5-.3,1.21-.2,1.61.3.4.5.2,1.21-.3,1.61l-3.23,2.12c-.1,0-.4.1-.6.1Z"/>
        <path d="M45.87,22.48c-.2,0-.4-.1-.6-.2l-3.23-2.12c-.5-.3-.71-1.01-.3-1.61.3-.5,1.01-.71,1.61-.3l3.23,2.12c.5.3.71,1.01.3,1.61-.3.3-.61.5-1.01.5Z"/>
        <path d="M6.45,22.48c-.2,0-.4-.1-.6-.2l-3.23-2.12c-.5-.3-.71-1.01-.3-1.61.3-.5,1.01-.71,1.61-.3l1.41.91v-10.59c0-.61.5-1.11,1.11-1.11h9.58c.6,0,1.11.5,1.11,1.11s-.5,1.11-1.11,1.11H7.56v11.7c0,.4-.2.81-.6,1.01-.1,0-.3.1-.5.1Z"/>
        <path d="M6.45,22.48c-.4,0-.71-.2-.91-.5-.3-.5-.2-1.21.3-1.61l3.23-2.12c.5-.3,1.21-.2,1.61.3.3.5.2,1.21-.3,1.61l-3.23,2.12c-.3.1-.5.2-.71.2Z"/>
        <path d="M29.94,52.33h-7.46c-.6,0-1.11-.5-1.11-1.11s.5-1.11,1.11-1.11h7.46c.6,0,1.11.5,1.11,1.11s-.5,1.11-1.11,1.11Z"/>
        <path d="M33.07,39.52h-12.7c-.6,0-1.11-.5-1.11-1.11v-10.69c0-.6.5-1.11,1.11-1.11h12.8c.6,0,1.11.5,1.11,1.11v10.69c0,.6-.5,1.11-1.21,1.11ZM21.48,37.2h10.49v-8.37h-10.49v8.37Z"/>
        <rect x="22.48" y="31.96" width="2.12" height="2.12"/>
        <rect x="25.61" y="31.96" width="2.12" height="2.12"/>
        <rect x="28.83" y="31.96" width="2.12" height="2.12"/>
      </g>
    </g>
  </g>
</svg>