<svg version="1.1" xmlns="http://www.w3.org/2000/svg" xmlns:xlink="http://www.w3.org/1999/xlink" width="52.43px" height="38.51px" viewBox="0,0,256,188.03125"><g fill="#262e4f" fill-rule="nonzero" stroke="none" stroke-width="1" stroke-linecap="butt" stroke-linejoin="miter" stroke-miterlimit="10" stroke-dasharray="" stroke-dashoffset="0" font-family="none" font-weight="none" font-size="none" text-anchor="none" style="mix-blend-mode: normal"><g transform="translate(-0.02441,-0.00078) scale(4.8827,4.8827)"><g id="_x31_"><g id="D_-_17_x2C__Team_x2C__user_x2C__manager_x2C__squard"><g><path d="M41.54,38.51h-30.85c-0.6,0 -1.11,-0.5 -1.11,-1.11v-11.8c0,-0.5 0.4,-1.01 0.91,-1.11l9.68,-2.22c0.5,-0.1 1.01,0.1 1.21,0.5l2.52,4.44l1.81,-1.11c0.4,-0.2 0.91,-0.2 1.21,0l1.71,1.11l3.63,-4.54c0.3,-0.4 0.81,-0.5 1.21,-0.4l8.57,2.82c0.5,0.2 0.81,0.61 0.81,1.11v11.09c-0.1,0.71 -0.6,1.21 -1.31,1.21zM11.8,36.2h28.63v-9.07l-6.96,-2.32l-3.83,4.74c-0.4,0.5 -1.01,0.61 -1.51,0.2l-1.92,-1.31l-2.22,1.41c-0.3,0.2 -0.61,0.2 -0.91,0.1c-0.3,-0.1 -0.5,-0.3 -0.71,-0.5l-2.62,-4.74l-7.96,1.81v9.68v0z"></path><path d="M35.19,38.51h-18.15c-0.6,0 -1.11,-0.5 -1.11,-1.11v-6.35c0,-0.61 0.5,-1.11 1.11,-1.11c0.61,0 1.11,0.5 1.11,1.11v5.24h15.83v-5.24c0,-0.61 0.5,-1.11 1.11,-1.11c0.61,0 1.11,0.5 1.11,1.11v6.35c0.1,0.61 -0.4,1.11 -1.01,1.11z"></path><path d="M26.31,20.57c-2.52,0 -4.84,-1.61 -6.45,-4.64c-1.21,-2.32 -2.02,-5.24 -2.02,-7.56c0,-0.61 0,-1.21 0.1,-1.81c0.1,-0.61 0.71,-1.01 1.31,-0.91c0.61,0.1 1.01,0.71 0.91,1.31c-0.1,0.4 -0.1,0.81 -0.1,1.41c0,1.61 0.5,4.23 1.71,6.45c0.91,1.61 2.32,3.53 4.44,3.53c1.51,0 2.72,-1.01 3.53,-1.92c1.81,-2.22 2.92,-5.95 2.52,-8.47c-0.1,-0.61 0.3,-1.21 0.91,-1.31c0.6,-0.1 1.21,0.3 1.31,0.91c0.5,3.23 -0.71,7.66 -3.02,10.38c-1.41,1.71 -3.23,2.62 -5.14,2.62z"></path><path d="M33.57,8.87c-0.2,0 -0.4,0 -0.5,-0.1l-2.42,-1.21c-0.4,0.3 -1.01,0.6 -1.92,0.6h-8.37c-2.32,0 -4.13,-1.61 -4.13,-3.83v-3.22c0,-0.6 0.5,-1.11 1.11,-1.11h11.09c1.41,0 2.02,1.11 2.42,1.71l0.1,0.1v0.1v0l3.12,1.92c0.3,0.2 0.5,0.61 0.5,1.01v2.82c0,0.4 -0.2,0.81 -0.5,1.01c-0.1,0.1 -0.3,0.2 -0.5,0.2zM18.55,2.32v2.02c0,1.01 0.91,1.51 1.81,1.51h8.37c0.5,0 0.61,-0.2 0.61,-0.3c0.3,-0.5 1.01,-0.71 1.51,-0.4l1.41,0.71v-0.4l-2.82,-1.71c-0.2,-0.1 -0.4,-0.4 -0.5,-0.61v-0.1l-0.1,-0.1c-0.1,-0.2 -0.3,-0.5 -0.4,-0.61h-9.88z"></path><path d="M23.49,29.94h-0.3c-0.3,-0.1 -0.5,-0.3 -0.71,-0.5l-3.12,-5.44c-0.2,-0.4 -0.2,-1.01 0.2,-1.41l2.02,-2.02c0.2,-0.2 0.61,-0.4 0.91,-0.3c0.3,0 0.61,0.2 0.81,0.5l3.83,5.75c0.2,0.3 0.2,0.6 0.2,0.91c-0.1,0.3 -0.2,0.6 -0.5,0.71l-2.82,1.71c-0.1,0.1 -0.3,0.1 -0.5,0.1zM21.78,23.59l2.12,3.63l0.71,-0.4l-2.42,-3.63l-0.4,0.4z"></path><path d="M28.73,29.94c-0.2,0 -0.4,-0.1 -0.6,-0.2l-2.52,-1.61c-0.3,-0.2 -0.4,-0.5 -0.5,-0.81c0,-0.3 0,-0.61 0.2,-0.91l4.74,-5.75c0.2,-0.2 0.5,-0.4 0.81,-0.4c0.31,0 0.61,0.1 0.91,0.3l2.12,2.12c0.4,0.4 0.4,1.11 0.1,1.51l-4.34,5.34c-0.2,0.3 -0.5,0.4 -0.91,0.4zM27.93,26.92l0.61,0.4l3.02,-3.73l-0.5,-0.5z"></path><path d="M26.62,16.84c-1.31,0 -2.32,-0.5 -2.82,-1.01l1.51,-1.71v0c0.1,0.1 1.31,1.01 2.92,-0.1c0.5,-0.4 1.21,-0.2 1.61,0.3c0.4,0.5 0.2,1.21 -0.3,1.61c-1.11,0.71 -2.02,0.91 -2.92,0.91z"></path><path d="M17.04,21.48h-15.93c-0.6,0 -1.11,-0.5 -1.11,-1.11v-5.95c0,-0.5 0.3,-0.91 0.81,-1.11l5.34,-1.51c0.3,-0.1 0.71,0 1.01,0.2l2.02,1.51l2.02,-1.51c0.3,-0.2 0.71,-0.3 1.01,-0.2l5.34,1.51c0.5,0.1 0.81,0.61 0.81,1.11v5.95c-0.2,0.61 -0.71,1.11 -1.31,1.11zM2.22,19.16h13.71v-3.93l-3.93,-1.11l-2.22,1.61c-0.4,0.3 -1.01,0.3 -1.41,0l-2.22,-1.61l-3.93,1.11z"></path><path d="M13.81,21.48h-9.57c-0.3,0 -0.61,-0.1 -0.81,-0.3c-0.2,-0.2 -0.3,-0.5 -0.3,-0.81v-3.23c0,-0.61 0.5,-1.11 1.11,-1.11v0c0.6,0 1.11,0.5 1.11,1.11v2.02h7.36v-2.12c0,-0.61 0.5,-1.11 1.11,-1.11v0c0.6,0 1.11,0.5 1.11,1.11v3.23c0,0.3 -0.1,0.6 -0.3,0.81c-0.2,0.3 -0.5,0.4 -0.81,0.4z"></path><path d="M9.17,11.9c-2.72,0 -5.04,-2.22 -5.04,-5.04c0,-2.82 2.22,-5.04 5.04,-5.04c2.82,0 5.04,2.22 5.04,5.04c0,2.82 -2.22,5.04 -5.04,5.04zM9.17,4.13c-1.51,0 -2.72,1.21 -2.72,2.72c0,1.51 1.21,2.72 2.72,2.72c1.51,0 2.72,-1.21 2.72,-2.72c0,-1.51 -1.21,-2.72 -2.72,-2.72z"></path><path d="M51.12,21.48h-15.93c-0.61,0 -1.11,-0.5 -1.11,-1.11v-5.95c0,-0.5 0.3,-0.91 0.81,-1.11l5.34,-1.51c0.3,-0.1 0.71,0 1.01,0.2l2.02,1.41l2.02,-1.41c0.3,-0.2 0.6,-0.3 1.01,-0.2l5.34,1.51c0.5,0.1 0.81,0.61 0.81,1.11v5.95c-0.1,0.61 -0.6,1.11 -1.31,1.11zM36.3,19.16h13.71v-3.93l-3.93,-1.11l-2.22,1.61c-0.4,0.3 -0.91,0.3 -1.31,0l-2.22,-1.61l-3.93,1.11l-0.1,3.93z"></path><path d="M47.99,21.48h-9.58c-0.3,0 -0.6,-0.1 -0.81,-0.3c-0.2,-0.2 -0.3,-0.5 -0.3,-0.81v-3.23c0,-0.61 0.5,-1.11 1.11,-1.11v0c0.61,0 1.11,0.5 1.11,1.11v2.02h7.26v-2.12c0,-0.61 0.5,-1.11 1.11,-1.11v0c0.61,0 1.11,0.5 1.11,1.11v3.23c0,0.3 -0.1,0.6 -0.3,0.81c-0.2,0.2 -0.4,0.4 -0.71,0.4z"></path><path d="M43.35,11.9c-2.72,0 -5.04,-2.22 -5.04,-5.04c0,-2.82 2.22,-5.04 5.04,-5.04c2.82,0 5.04,2.22 5.04,5.04c-0.1,2.72 -2.32,5.04 -5.04,5.04zM43.35,4.13c-1.51,0 -2.72,1.21 -2.72,2.72c0,1.51 1.21,2.72 2.72,2.72c1.51,0 2.72,-1.21 2.72,-2.72c0,-1.51 -1.21,-2.72 -2.72,-2.72z"></path></g></g></g></g></g></svg>